<svg width="26" height="26" viewBox="0 0 26 26" fill="none" xmlns="http://www.w3.org/2000/svg">
<path fill-rule="evenodd" clip-rule="evenodd" d="M12.8501 25.2333C19.8175 25.2333 25.4667 19.5849 25.4667 12.6167C25.4667 5.64839 19.8175 0 12.8501 0C5.88256 0 0.233398 5.64839 0.233398 12.6167C0.233398 19.5849 5.88256 25.2333 12.8501 25.2333ZM8.90736 9.98846H10.8787V7.76374C10.8787 5.77161 11.9276 4.73125 14.2901 4.73125H16.7928V8.0171H14.8969C14.5334 8.0171 14.3425 8.10645 14.247 8.31359C14.1838 8.45143 14.1638 8.64163 14.1638 8.89262V9.98846H16.7928L16.5572 12.6167H14.1638V20.5021H10.8787V12.6167H8.90736V9.98846Z" fill="white"/>
</svg>
