<svg width="26" height="26" viewBox="0 0 26 26" fill="none" xmlns="http://www.w3.org/2000/svg">
<path d="M10.1196 13.0149C10.1196 14.394 11.2378 15.5114 12.6162 15.5114C13.9961 15.5114 15.1127 14.394 15.1127 13.0149C15.1127 11.6357 13.9961 10.5176 12.6162 10.5176C11.2378 10.5176 10.1196 11.6357 10.1196 13.0149Z" fill="white"/>
<path fill-rule="evenodd" clip-rule="evenodd" d="M13.9704 6.8695L12.6166 6.86719C10.616 6.86719 10.3788 6.87489 9.58877 6.91031C7.55731 7.00272 6.61168 7.96683 6.51773 9.98131C6.48231 10.7714 6.47461 11.0078 6.47461 13.0084C6.47461 15.0091 6.48231 15.2455 6.51773 16.0348C6.61014 18.0461 7.55423 19.0133 9.58877 19.1066C10.3788 19.1427 10.616 19.1504 12.6166 19.1504C14.6172 19.1504 14.8528 19.1427 15.643 19.1066C17.6759 19.0141 18.6215 18.0492 18.7139 16.0355C18.7493 15.2462 18.7571 15.0098 18.7571 13.0084C18.7571 11.0085 18.7509 10.7714 18.7139 9.98131C18.6215 7.96683 17.6744 7.0035 15.643 6.91109C15.0824 6.88567 14.8005 6.87412 13.9704 6.8695ZM12.615 9.16967C10.4897 9.16967 8.76781 10.8923 8.76781 13.0161C8.76781 15.1407 10.4897 16.8633 12.615 16.8633C14.7389 16.8633 16.4607 15.1414 16.4607 13.0161C16.4607 10.8923 14.7389 9.16967 12.615 9.16967ZM16.6163 8.11625C16.1188 8.11625 15.7153 8.51896 15.7153 9.01488C15.7153 9.29134 15.8401 9.53855 16.0372 9.70335C16.1943 9.83504 16.3961 9.91429 16.6163 9.91429C17.1122 9.91429 17.5142 9.51158 17.5142 9.01488C17.5142 8.51896 17.1122 8.11625 16.6163 8.11625Z" fill="white"/>
<path fill-rule="evenodd" clip-rule="evenodd" d="M12.6167 25.2333C19.5841 25.2333 25.2333 19.5849 25.2333 12.6167C25.2333 5.64839 19.5841 0 12.6167 0C5.64916 0 0 5.64839 0 12.6167C0 19.5849 5.64916 25.2333 12.6167 25.2333ZM10.824 5.52595C11.2228 5.52133 11.7635 5.51979 12.6167 5.51979C14.6512 5.51979 14.9068 5.52826 15.7062 5.56523C18.4291 5.68997 19.9399 7.20468 20.0632 9.92301C20.0986 10.7216 20.1078 10.9764 20.1078 13.0109C20.1078 15.0455 20.0986 15.3011 20.0616 16.0997C19.9399 18.8226 18.4229 20.3319 15.7062 20.4575C14.9068 20.4936 14.6512 20.5021 12.6167 20.5021C10.5822 20.5021 10.3281 20.4936 9.52716 20.4575C6.80426 20.3319 5.29493 18.8203 5.17018 16.0997C5.13476 15.3011 5.12552 15.0455 5.12552 13.0109C5.12552 10.9764 5.13476 10.7216 5.17172 9.92222C5.29648 7.19929 6.80733 5.68997 9.52874 5.56446C9.99232 5.54366 10.2726 5.53211 10.824 5.52595Z" fill="white"/>
</svg>
