<svg width="26" height="26" viewBox="0 0 26 26" fill="none" xmlns="http://www.w3.org/2000/svg">
<circle cx="12.615" cy="12.615" r="12.615" fill="white"/>
<path d="M9.3374 8.12514C9.33724 8.45666 9.20538 8.77453 8.97084 9.00884C8.73631 9.24314 8.4183 9.37468 8.08678 9.37451C7.75526 9.37435 7.43738 9.24249 7.20308 9.00795C6.96877 8.77342 6.83724 8.45541 6.8374 8.12389C6.83757 7.79237 6.96942 7.47449 7.20396 7.24019C7.4385 7.00588 7.75651 6.87435 8.08803 6.87451C8.41955 6.87468 8.73742 7.00653 8.97173 7.24107C9.20603 7.47561 9.33757 7.79362 9.3374 8.12514ZM9.3749 10.3001H6.8749V18.1251H9.3749V10.3001ZM13.3249 10.3001H10.8374V18.1251H13.2999V14.0189C13.2999 11.7314 16.2812 11.5189 16.2812 14.0189V18.1251H18.7499V13.1689C18.7499 9.31264 14.3374 9.45639 13.2999 11.3501L13.3249 10.3001Z" fill="#0D5A9B"/>
</svg>
