<svg width="24" height="25" viewBox="0 0 24 25" fill="none" xmlns="http://www.w3.org/2000/svg">
<path d="M12 18.8555C11.59 18.8555 11.25 18.5155 11.25 18.1055V15.1055C11.25 14.6955 11.59 14.3555 12 14.3555C12.41 14.3555 12.75 14.6955 12.75 15.1055V18.1055C12.75 18.5155 12.41 18.8555 12 18.8555Z" fill="#333333"/>
<path d="M17.6 22.6653H6.39996C4.57996 22.6653 2.91996 21.2653 2.61996 19.4753L1.28996 11.5053C1.06996 10.2653 1.67996 8.67529 2.66996 7.88529L9.59996 2.33529C10.94 1.25529 13.05 1.26529 14.4 2.34529L21.33 7.88529C22.31 8.67529 22.91 10.2653 22.71 11.5053L21.38 19.4653C21.08 21.2353 19.38 22.6653 17.6 22.6653ZM11.99 3.03529C11.46 3.03529 10.93 3.19529 10.54 3.50529L3.60996 9.06529C3.04996 9.51529 2.64996 10.5553 2.76996 11.2653L4.09996 19.2253C4.27996 20.2753 5.32996 21.1653 6.39996 21.1653H17.6C18.67 21.1653 19.72 20.2753 19.9 19.2153L21.23 11.2553C21.34 10.5553 20.94 9.49529 20.39 9.05529L13.46 3.51529C13.06 3.19529 12.52 3.03529 11.99 3.03529Z" fill="#333333"/>
</svg>
