<svg width="24" height="25" viewBox="0 0 24 25" fill="none" xmlns="http://www.w3.org/2000/svg">
<path d="M21.25 12.1054C21.25 12.2954 21.18 12.4854 21.03 12.6354L14.96 18.7054C14.67 18.9954 14.19 18.9954 13.9 18.7054C13.61 18.4154 13.61 17.9354 13.9 17.6454L19.44 12.1054L13.9 6.56535C13.61 6.27535 13.61 5.79535 13.9 5.50535C14.19 5.21535 14.67 5.21535 14.96 5.50535L21.03 11.5754C21.18 11.7254 21.25 11.9154 21.25 12.1054Z" fill="#333333"/>
<path d="M21.08 12.1055C21.08 12.5155 20.74 12.8555 20.33 12.8555L3.5 12.8555C3.09 12.8555 2.75 12.5155 2.75 12.1055C2.75 11.6955 3.09 11.3555 3.5 11.3555L20.33 11.3555C20.74 11.3555 21.08 11.6955 21.08 12.1055Z" fill="#333333"/>
</svg>
