<svg width="32" height="33" viewBox="0 0 32 33" fill="none" xmlns="http://www.w3.org/2000/svg">
<g clip-path="url(#clip0_2374_10960)">
<path d="M16 8.01758C11.1063 8.01758 7.125 11.9989 7.125 16.8926C7.125 21.7863 11.1063 25.7676 16 25.7676C20.8937 25.7676 24.875 21.7863 24.875 16.8926C24.875 11.9989 20.8937 8.01758 16 8.01758ZM16 24.5176C11.7956 24.5176 8.375 21.097 8.375 16.8926C8.375 12.6881 11.7956 9.26758 16 9.26758C20.2044 9.26758 23.625 12.6881 23.625 16.8926C23.625 21.097 20.2044 24.5176 16 24.5176Z" fill="#0D5A9B"/>
<path d="M31.6682 0.965578C31.464 0.857203 31.2166 0.870266 31.0251 0.999641C27.9568 3.07283 26.125 6.52133 26.125 10.2244V18.3339C26.125 19.2037 26.4638 20.0215 27.0788 20.6365L28.25 21.8078V31.0176C28.25 32.0515 29.0911 32.8926 30.125 32.8926C31.1589 32.8926 32 32.0515 32 31.0176V1.51758C32 1.28639 31.8724 1.07408 31.6682 0.965578ZM30.75 31.0176C30.75 31.3622 30.4696 31.6426 30.125 31.6426C29.7804 31.6426 29.5 31.3622 29.5 31.0176V21.5488C29.5 21.3831 29.4341 21.2241 29.3169 21.1069L27.9626 19.7526C27.5837 19.3736 27.375 18.8698 27.375 18.3339V10.2244C27.375 7.35064 28.6176 4.64977 30.75 2.78614V31.0176Z" fill="#0D5A9B"/>
<path d="M14.5661 11.9354C14.4306 11.618 14.0632 11.4705 13.7458 11.606C11.625 12.5113 10.2546 14.5863 10.2546 16.8921C10.2546 17.2372 10.5345 17.5171 10.8796 17.5171C11.2248 17.5171 11.5046 17.2372 11.5046 16.8921C11.5046 15.0878 12.577 13.4641 14.2366 12.7557C14.5541 12.6202 14.7016 12.2529 14.5661 11.9354Z" fill="#0D5A9B"/>
<path d="M16 11.1475L15.9685 11.1475C15.6233 11.1498 15.3454 11.4315 15.3477 11.7767C15.35 12.1205 15.6294 12.3975 15.9726 12.3975C15.974 12.3975 15.9755 12.3975 15.9769 12.3975L16 12.3975C16.3452 12.3975 16.625 12.1176 16.625 11.7725C16.625 11.4273 16.3452 11.1475 16 11.1475Z" fill="#0D5A9B"/>
<path d="M24.664 8.67203C23.5597 7.50853 22.2581 6.59303 20.7953 5.95103C19.2805 5.28628 17.6671 4.94922 16 4.94922C14.095 4.94922 12.274 5.38459 10.5876 6.24334C10.2801 6.39997 10.1576 6.77628 10.3143 7.08391C10.4709 7.39141 10.8473 7.51378 11.1549 7.35722C12.6639 6.58884 14.294 6.19922 16 6.19922C18.9623 6.19922 21.7172 7.38297 23.7573 9.53253C23.8801 9.66203 24.0453 9.72728 24.2107 9.72728C24.3652 9.72728 24.52 9.67034 24.6408 9.55559C24.8912 9.31797 24.9015 8.92241 24.664 8.67203Z" fill="#0D5A9B"/>
<path d="M25.2707 23.4159C24.9999 23.2019 24.6069 23.2479 24.3929 23.5186C22.3495 26.103 19.2905 27.5851 16 27.5851C13.9407 27.5851 11.9415 26.9986 10.2186 25.889C9.92848 25.7021 9.5416 25.7859 9.35473 26.076C9.16785 26.3663 9.2516 26.753 9.54179 26.9399C11.4669 28.1798 13.7002 28.8351 16 28.8351C19.675 28.8351 23.0915 27.1799 25.3734 24.2938C25.5874 24.0231 25.5415 23.6301 25.2707 23.4159Z" fill="#0D5A9B"/>
<path d="M8.49737 24.5128L8.48819 24.5023C8.48487 24.4982 8.48156 24.4941 8.47812 24.4901C8.25581 24.226 7.86156 24.1922 7.5975 24.4145C7.33344 24.6368 7.29956 25.031 7.52194 25.2951L7.528 25.3023L7.52831 25.3021C7.53494 25.3105 7.54181 25.3188 7.54894 25.3271C7.67256 25.4711 7.84744 25.545 8.02344 25.545C8.16756 25.545 8.31237 25.4954 8.43025 25.3942C8.69212 25.1693 8.72219 24.7748 8.49737 24.5128Z" fill="#0D5A9B"/>
<path d="M7.75 0.892578C7.40481 0.892578 7.125 1.17239 7.125 1.51758V8.26758H5.9995C5.99956 8.26408 6 8.2607 6 8.25714V1.51758C6 1.17239 5.72019 0.892578 5.375 0.892578C5.02981 0.892578 4.75 1.17239 4.75 1.51758V8.25714C4.75 8.26064 4.7505 8.26408 4.7505 8.26758H3.6245C3.62456 8.26408 3.625 8.2607 3.625 8.25714V1.51758C3.625 1.17239 3.34519 0.892578 3 0.892578C2.65481 0.892578 2.375 1.17239 2.375 1.51758V8.25714C2.375 8.26064 2.3755 8.26408 2.3755 8.26758H1.25V1.51758C1.25 1.17239 0.970188 0.892578 0.625 0.892578C0.279813 0.892578 0 1.17239 0 1.51758V9.14258C0 10.6757 0.93025 12.0594 2.3125 12.6575V31.0176C2.3125 32.0515 3.15363 32.8926 4.1875 32.8926C5.22138 32.8926 6.0625 32.0515 6.0625 31.0176V12.6575C7.44475 12.0594 8.375 10.6757 8.375 9.14258V1.51758C8.375 1.17239 8.09519 0.892578 7.75 0.892578ZM5.264 11.6188C4.99663 11.6961 4.8125 11.9409 4.8125 12.2193V31.0176C4.8125 31.3622 4.53213 31.6426 4.1875 31.6426C3.84288 31.6426 3.5625 31.3622 3.5625 31.0176V12.2193C3.5625 11.9409 3.37844 11.6961 3.111 11.6188C2.13706 11.3374 1.42469 10.5014 1.27825 9.51758H7.09669C6.95031 10.5014 6.23794 11.3374 5.264 11.6188Z" fill="#0D5A9B"/>
</g>
<defs>
<clipPath id="clip0_2374_10960">
<rect width="32" height="32" fill="white" transform="translate(0 0.892578)"/>
</clipPath>
</defs>
</svg>
