<svg width="24" height="25" viewBox="0 0 24 25" fill="none" xmlns="http://www.w3.org/2000/svg">
<path d="M5.17988 9.67541C5.17988 9.48541 5.24988 9.29541 5.39988 9.14541L11.4699 3.07541C11.7599 2.78541 12.2399 2.78541 12.5299 3.07541L18.5999 9.14541C18.8899 9.43541 18.8899 9.91541 18.5999 10.2054C18.3099 10.4954 17.8299 10.4954 17.5399 10.2054L11.9999 4.66541L6.45988 10.2054C6.16988 10.4954 5.68988 10.4954 5.39988 10.2054C5.24988 10.0654 5.17988 9.86541 5.17988 9.67541Z" fill="#333333"/>
<path d="M11.25 20.6054L11.25 3.77539C11.25 3.36539 11.59 3.02539 12 3.02539C12.41 3.02539 12.75 3.36539 12.75 3.77539L12.75 20.6054C12.75 21.0154 12.41 21.3554 12 21.3554C11.59 21.3554 11.25 21.0154 11.25 20.6054Z" fill="#333333"/>
</svg>
