<svg width="26" height="26" viewBox="0 0 26 26" fill="none" xmlns="http://www.w3.org/2000/svg">
<path d="M11.4443 15.0661V10.1602L16.439 12.6089L11.4443 15.0661Z" fill="white"/>
<path fill-rule="evenodd" clip-rule="evenodd" d="M13.3169 25.2333C20.2843 25.2333 25.9335 19.5849 25.9335 12.6167C25.9335 5.64839 20.2843 0 13.3169 0C6.34935 0 0.700195 5.64839 0.700195 12.6167C0.700195 19.5849 6.34935 25.2333 13.3169 25.2333ZM18.0712 7.21007C15.8211 7.05914 10.8095 7.05991 8.56251 7.21007C6.13066 7.37256 5.8442 8.81645 5.82572 12.6167C5.8442 16.4099 6.12758 17.86 8.56251 18.0232C10.8111 18.1734 15.8211 18.1742 18.0712 18.0232C20.5031 17.8608 20.7896 16.4169 20.808 12.6167C20.7896 8.82339 20.5062 7.37333 18.0712 7.21007Z" fill="white"/>
</svg>
