<svg width="98" height="70" viewBox="0 0 98 70" fill="none" xmlns="http://www.w3.org/2000/svg">
<g clip-path="url(#clip0_3055_13824)">
<mask id="mask0_3055_13824" style="mask-type:luminance" maskUnits="userSpaceOnUse" x="0" y="0" width="98" height="69">
<path d="M0.891144 0.890989H97.1088V68.9207H0.891144V0.890989Z" fill="white"/>
</mask>
<g mask="url(#mask0_3055_13824)">
<path d="M7.03632 21.3356V22.3238C7.14449 22.7016 7.16626 23.0827 7.26692 23.4703C8.16883 26.9432 11.1374 27.8995 13.7764 29.3721C17.9085 31.678 23.4445 34.8618 26.0849 39.0588C28.2125 42.4407 27.0455 44.0416 25.1246 46.968C23.6087 49.2773 21.8044 51.3551 20.0037 53.408H20.1721C21.698 52.1793 23.2925 51.0357 24.759 49.7223C27.0072 47.7088 30.3055 44.3452 31.2055 41.3276C31.3689 40.7796 31.4089 40.2155 31.5395 39.6626C31.5139 39.285 31.5751 38.8652 31.5395 38.4948C31.1123 34.0387 26.3784 31.0732 23.0368 29.1946C17.1938 25.9097 8.15221 23.955 11.2452 14.4615C11.5961 13.3845 12.136 12.3874 12.5937 11.3635H12.5095C10.4901 13.6453 8.51419 16.0999 7.51867 19.1101L7.03632 21.3356Z" fill="#4582C4"/>
<path d="M27.1406 21.3356V22.3238C27.0325 22.7016 27.0107 23.0827 26.91 23.4703C26.0081 26.9432 23.0395 27.8995 20.4006 29.3721C16.2684 31.678 10.7325 34.8618 8.09203 39.0588C5.96444 42.4407 7.13141 44.0416 9.05237 46.968C10.5683 49.2773 12.3726 51.3551 14.1733 53.408H14.0049C12.4789 52.1793 10.8845 51.0357 9.41794 49.7223C7.16972 47.7088 3.87148 44.3452 2.97146 41.3276C2.80801 40.7796 2.76808 40.2155 2.63743 39.6626C2.66301 39.285 2.60189 38.8652 2.63743 38.4948C3.06466 34.0387 7.79852 31.0732 11.1402 29.1946C16.9831 25.9097 26.0247 23.955 22.9318 14.4615C22.5809 13.3845 22.041 12.3874 21.5832 11.3635H21.6674C23.6868 13.6453 25.6628 16.0999 26.6583 19.1101L27.1406 21.3356Z" fill="#60BB4C"/>
<path d="M33.0753 35.1026L37.3667 25.0179H39.3979L43.6893 35.1026H41.3863L40.4708 32.8568H36.2366L35.3211 35.1026H33.0753ZM37.0234 30.9114H39.684L38.3537 27.6642L37.0234 30.9114ZM45.2347 35.1026V25.0894H47.4376V33.1H52.4299V35.1026H45.2347ZM61.9417 35.2456C60.4254 35.2456 58.8948 34.7164 57.6932 33.6435L58.9949 32.0843C59.8961 32.8282 60.8402 33.3002 61.9846 33.3002C62.8858 33.3002 63.4294 32.9426 63.4294 32.3561V32.3275C63.4294 31.7696 63.086 31.4835 61.4124 31.0544C59.3955 30.5394 58.0938 29.9816 58.0938 27.9932V27.9646C58.0938 26.1479 59.5528 24.9464 61.5984 24.9464C63.0574 24.9464 64.3019 25.4041 65.3176 26.2195L64.1732 27.8788C63.2863 27.2637 62.4137 26.8918 61.5698 26.8918C60.7258 26.8918 60.2823 27.278 60.2823 27.7644V27.793C60.2823 28.451 60.7115 28.6655 62.4423 29.109C64.4736 29.6383 65.618 30.3678 65.618 32.1129V32.1416C65.618 34.1299 64.1017 35.2456 61.9417 35.2456ZM66.4619 35.1026L70.7533 25.0179H72.7845L77.0759 35.1026H74.7729L73.8574 32.8568H69.6232L68.7077 35.1026H66.4619ZM70.41 30.9114H73.0706L71.7403 27.6642L70.41 30.9114ZM79.8608 35.1026V31.1545L76.0129 25.0894H78.5877L80.9766 29.109L83.4084 25.0894H85.9116L82.0637 31.1116V35.1026H79.8608ZM90.3413 35.2456C88.825 35.2456 87.2944 34.7164 86.0928 33.6435L87.3945 32.0843C88.2957 32.8282 89.2398 33.3002 90.3842 33.3002C91.2854 33.3002 91.8289 32.9426 91.8289 32.3561V32.3275C91.8289 31.7696 91.4856 31.4835 89.812 31.0544C87.795 30.5394 86.4933 29.9816 86.4933 27.9932V27.9646C86.4933 26.1479 87.9524 24.9464 89.9979 24.9464C91.457 24.9464 92.7015 25.4041 93.7171 26.2195L92.5728 27.8788C91.6859 27.2637 90.8133 26.8918 89.9693 26.8918C89.1254 26.8918 88.6819 27.278 88.6819 27.7644V27.793C88.6819 28.451 89.1111 28.6655 90.8419 29.109C92.8732 29.6383 94.0175 30.3678 94.0175 32.1129V32.1416C94.0175 34.1299 92.5012 35.2456 90.3413 35.2456Z" fill="white"/>
</g>
<path d="M34.5518 44.4453V40.5952H33.0933V39.8461H36.8251V40.5952H35.3666V44.4453H34.5518ZM37.1154 44.4453V40.9762H37.9104V41.7581C38.1272 41.239 38.528 40.8842 39.139 40.9105V41.7515H39.093C38.3966 41.7515 37.9104 42.2049 37.9104 43.1247V44.4453H37.1154ZM40.6613 44.5176C40.0108 44.5176 39.4327 44.1431 39.4327 43.4466V43.4335C39.4327 42.6845 40.0174 42.3166 40.865 42.3166C41.2526 42.3166 41.5286 42.3757 41.7979 42.4611V42.3757C41.7979 41.8829 41.4957 41.6201 40.9372 41.6201C40.5496 41.6201 40.2605 41.7055 39.9451 41.8369L39.7349 41.2128C40.116 41.0419 40.4905 40.9302 41.0424 40.9302C41.5614 40.9302 41.9491 41.0682 42.1922 41.3179C42.4484 41.5676 42.5667 41.9355 42.5667 42.3888V44.4453H41.7914V44.0117C41.5548 44.2942 41.1935 44.5176 40.6613 44.5176ZM40.8847 43.9394C41.4103 43.9394 41.8111 43.6372 41.8111 43.197V42.9604C41.6074 42.8816 41.338 42.8225 41.0227 42.8225C40.5102 42.8225 40.2079 43.0393 40.2079 43.4006V43.4138C40.2079 43.7489 40.5036 43.9394 40.8847 43.9394ZM44.9511 44.5176C44.1364 44.5176 43.3414 43.8671 43.3414 42.7173V42.7042C43.3414 41.5544 44.1232 40.904 44.9511 40.904C45.5227 40.904 45.8841 41.1865 46.1337 41.515V39.649H46.9287V44.4453H46.1337V43.8671C45.8775 44.2285 45.5161 44.5176 44.9511 44.5176ZM45.1416 43.8277C45.6738 43.8277 46.1469 43.3809 46.1469 42.7173V42.7042C46.1469 42.034 45.6738 41.5938 45.1416 41.5938C44.5963 41.5938 44.1429 42.0143 44.1429 42.7042V42.7173C44.1429 43.3875 44.6029 43.8277 45.1416 43.8277ZM47.9399 40.444V39.6885H48.794V40.444H47.9399ZM47.9727 44.4453V40.9762H48.7677V44.4453H47.9727ZM49.8067 44.4453V40.9762H50.6017V41.5084C50.8251 41.1865 51.147 40.904 51.6858 40.904C52.4676 40.904 52.921 41.4296 52.921 42.2311V44.4453H52.126V42.4742C52.126 41.9355 51.8566 41.6267 51.3835 41.6267C50.9236 41.6267 50.6017 41.9486 50.6017 42.4874V44.4453H49.8067ZM55.425 45.5097C54.8534 45.5097 54.3212 45.3651 53.8744 45.0958L54.1701 44.4979C54.5446 44.7278 54.9322 44.8658 55.4053 44.8658C56.1149 44.8658 56.5025 44.4979 56.5025 43.8014V43.5321C56.2134 43.9066 55.8521 44.1694 55.2805 44.1694C54.4658 44.1694 53.7036 43.5649 53.7036 42.5465V42.5334C53.7036 41.5084 54.4723 40.904 55.2805 40.904C55.8652 40.904 56.2266 41.1733 56.496 41.4953V40.9762H57.291V43.7357C57.291 44.3205 57.1398 44.7541 56.8508 45.0432C56.5354 45.3586 56.0492 45.5097 55.425 45.5097ZM55.4907 43.4926C56.0426 43.4926 56.5091 43.105 56.5091 42.5399V42.5268C56.5091 41.9618 56.0426 41.5741 55.4907 41.5741C54.9388 41.5741 54.5052 41.9552 54.5052 42.5268V42.5399C54.5052 43.105 54.9454 43.4926 55.4907 43.4926ZM63.5373 44.5373L62.9263 43.9131C62.5321 44.2811 62.0721 44.511 61.5202 44.511C60.6595 44.511 60.0157 43.992 60.0157 43.197V43.1838C60.0157 42.5925 60.3639 42.1654 60.9946 41.8961C60.7318 41.561 60.6135 41.2719 60.6135 40.9368V40.9237C60.6135 40.3061 61.1129 39.7673 61.9342 39.7673C62.6635 39.7673 63.1562 40.2601 63.1562 40.8777V40.8908C63.1562 41.4953 62.7554 41.8566 62.1444 42.0866L62.9328 42.8882C63.1102 42.6254 63.2745 42.3231 63.4256 42.0012L64.0366 42.3231C63.8527 42.6911 63.649 43.0524 63.4125 43.3678L64.1418 44.1037L63.5373 44.5373ZM61.7173 41.653C62.1904 41.4821 62.4401 41.2653 62.4401 40.9368V40.9237C62.4401 40.6149 62.2233 40.4046 61.921 40.4046C61.5925 40.4046 61.3691 40.6346 61.3691 40.9565V40.9697C61.3691 41.1996 61.4611 41.3704 61.7173 41.653ZM61.5991 43.8409C61.9145 43.8409 62.2035 43.6897 62.4664 43.4401L61.4414 42.3954C61.0143 42.5794 60.8304 42.8619 60.8304 43.1575V43.1707C60.8304 43.5583 61.1523 43.8409 61.5991 43.8409ZM68.505 44.511C67.802 44.511 67.1384 44.2679 66.5865 43.7751L67.0727 43.197C67.5129 43.578 67.9597 43.7949 68.5247 43.7949C69.0241 43.7949 69.3394 43.5583 69.3394 43.2167V43.2035C69.3394 42.875 69.1555 42.6976 68.3013 42.5005C67.3224 42.264 66.7705 41.9749 66.7705 41.1273V41.1142C66.7705 40.3258 67.4275 39.7804 68.3408 39.7804C69.0109 39.7804 69.5431 39.9841 70.0096 40.3586L69.576 40.9697C69.162 40.6609 68.7481 40.4966 68.3276 40.4966C67.8546 40.4966 67.5786 40.7397 67.5786 41.0419V41.0551C67.5786 41.4099 67.7889 41.5676 68.6758 41.7778C69.6482 42.0143 70.1476 42.3625 70.1476 43.1247V43.1378C70.1476 43.9985 69.4708 44.511 68.505 44.511ZM72.596 44.5242C71.5907 44.5242 70.8154 43.7949 70.8154 42.7239V42.7108C70.8154 41.7187 71.5184 40.904 72.5105 40.904C73.6143 40.904 74.1728 41.7712 74.1728 42.7699C74.1728 42.8422 74.1662 42.9144 74.1597 42.9933H71.6104C71.6958 43.5583 72.0966 43.8737 72.6091 43.8737C72.9967 43.8737 73.2727 43.7292 73.5486 43.4598L74.0151 43.8737C73.6866 44.2679 73.2333 44.5242 72.596 44.5242ZM71.6039 42.4677H73.3844C73.3318 41.9552 73.0296 41.5544 72.504 41.5544C72.0178 41.5544 71.6761 41.9289 71.6039 42.4677ZM74.9712 44.4453V40.9762H75.7662V41.7581C75.983 41.239 76.3838 40.8842 76.9948 40.9105V41.7515H76.9488C76.2524 41.7515 75.7662 42.2049 75.7662 43.1247V44.4453H74.9712ZM78.7825 44.4716L77.3568 40.9762H78.2109L79.1439 43.5255L80.0834 40.9762H80.9178L79.4987 44.4716H78.7825ZM81.6059 40.444V39.6885H82.46V40.444H81.6059ZM81.6388 44.4453V40.9762H82.4338V44.4453H81.6388ZM85.0759 44.5242C84.0443 44.5242 83.2822 43.716 83.2822 42.7305V42.7173C83.2822 41.7318 84.0443 40.904 85.089 40.904C85.7395 40.904 86.1468 41.1471 86.4753 41.5018L85.976 42.034C85.7329 41.7778 85.4766 41.6004 85.0824 41.6004C84.5042 41.6004 84.0772 42.0997 84.0772 42.7042V42.7173C84.0772 43.3349 84.5042 43.8277 85.1153 43.8277C85.4898 43.8277 85.7657 43.6569 86.0154 43.4006L86.495 43.8737C86.1534 44.2548 85.7526 44.5242 85.0759 44.5242ZM88.72 44.5242C87.7147 44.5242 86.9394 43.7949 86.9394 42.7239V42.7108C86.9394 41.7187 87.6425 40.904 88.6346 40.904C89.7384 40.904 90.2968 41.7712 90.2968 42.7699C90.2968 42.8422 90.2903 42.9144 90.2837 42.9933H87.7344C87.8199 43.5583 88.2206 43.8737 88.7331 43.8737C89.1208 43.8737 89.3967 43.7292 89.6727 43.4598L90.1391 43.8737C89.8106 44.2679 89.3573 44.5242 88.72 44.5242ZM87.7279 42.4677H89.5084C89.4558 41.9552 89.1536 41.5544 88.628 41.5544C88.1418 41.5544 87.8001 41.9289 87.7279 42.4677ZM92.2844 44.511C91.7917 44.511 91.2463 44.3336 90.8127 43.992L91.1675 43.4532C91.5486 43.7357 91.9493 43.8803 92.3041 43.8803C92.6458 43.8803 92.8429 43.7357 92.8429 43.5058V43.4926C92.8429 43.2232 92.475 43.1313 92.0676 43.0064C91.5551 42.8619 90.9835 42.6516 90.9835 41.988V41.9749C90.9835 41.3179 91.5289 40.9171 92.2187 40.9171C92.6524 40.9171 93.1254 41.0682 93.4934 41.3113L93.178 41.8764C92.8429 41.6727 92.4881 41.5478 92.199 41.5478C91.8902 41.5478 91.7128 41.6924 91.7128 41.8895V41.9026C91.7128 42.1589 92.0873 42.264 92.4947 42.3954C93.0006 42.5531 93.5722 42.783 93.5722 43.4072V43.4204C93.5722 44.1497 93.0072 44.511 92.2844 44.511Z" fill="white"/>
<path d="M0.740347 0.904602H0M97.2597 0.904602H98M0.740347 68.9068H0M97.2597 68.9068H98M0.904869 0.740081V-0.000265963M0.904869 69.0714V69.8117M97.0951 0.740081V-0.000265963M97.0951 69.0714V69.8117" stroke="white" stroke-width="0.0342753" stroke-miterlimit="10"/>
<path d="M0.740347 0.904602H0M97.2597 0.904602H98M0.740347 68.9068H0M97.2597 68.9068H98M0.904869 0.740081V-0.000265963M0.904869 69.0714V69.8117M97.0951 0.740081V-0.000265963M97.0951 69.0714V69.8117" stroke="black" stroke-width="0.00685506" stroke-miterlimit="10"/>
</g>
<defs>
<clipPath id="clip0_3055_13824">
<rect width="98" height="69.812" fill="white"/>
</clipPath>
</defs>
</svg>
